<svg width="35" height="35" viewBox="0 0 35 35" fill="none" xmlns="http://www.w3.org/2000/svg">
<path d="M17.0625 0C13.6879 0 10.389 1.0007 7.58309 2.87555C4.77718 4.7504 2.59023 7.4152 1.29881 10.533C0.00739288 13.6507 -0.330501 17.0814 0.327859 20.3912C0.986219 23.701 2.61126 26.7413 4.9975 29.1275C7.38373 31.5137 10.424 33.1388 13.7338 33.7971C17.0436 34.4555 20.4743 34.1176 23.592 32.8262C26.7098 31.5348 29.3746 29.3478 31.2495 26.5419C33.1243 23.736 34.125 20.4371 34.125 17.0625C34.1202 12.5387 32.321 8.20157 29.1222 5.00277C25.9234 1.80396 21.5863 0.0047772 17.0625 0ZM18.375 31.4393V21H22.3125C22.6606 21 22.9944 20.8617 23.2406 20.6156C23.4867 20.3694 23.625 20.0356 23.625 19.6875C23.625 19.3394 23.4867 19.0056 23.2406 18.7594C22.9944 18.5133 22.6606 18.375 22.3125 18.375H18.375V14.4375C18.375 13.7413 18.6516 13.0736 19.1439 12.5813C19.6361 12.0891 20.3038 11.8125 21 11.8125H23.625C23.9731 11.8125 24.3069 11.6742 24.5531 11.4281C24.7992 11.1819 24.9375 10.8481 24.9375 10.5C24.9375 10.1519 24.7992 9.81806 24.5531 9.57192C24.3069 9.32578 23.9731 9.1875 23.625 9.1875H21C19.6076 9.1875 18.2723 9.74062 17.2877 10.7252C16.3031 11.7098 15.75 13.0451 15.75 14.4375V18.375H11.8125C11.4644 18.375 11.1306 18.5133 10.8844 18.7594C10.6383 19.0056 10.5 19.3394 10.5 19.6875C10.5 20.0356 10.6383 20.3694 10.8844 20.6156C11.1306 20.8617 11.4644 21 11.8125 21H15.75V31.4393C12.0501 31.1015 8.62274 29.3504 6.18096 26.5502C3.73918 23.7499 2.47091 20.1161 2.63996 16.4046C2.80901 12.6932 4.40238 9.18972 7.08862 6.62305C9.77486 4.05638 13.3472 2.62408 17.0625 2.62408C20.7778 2.62408 24.3502 4.05638 27.0364 6.62305C29.7226 9.18972 31.316 12.6932 31.4851 16.4046C31.6541 20.1161 30.3858 23.7499 27.9441 26.5502C25.5023 29.3504 22.075 31.1015 18.375 31.4393Z" fill="white"/>
</svg>
