<svg width="70" height="70" viewBox="0 0 70 70" fill="none" xmlns="http://www.w3.org/2000/svg">
<rect width="70" height="70" rx="35" fill="#D9D9D9"/>
<path d="M51.6219 47.8125C49.4796 44.0527 46.1345 41.1231 42.125 39.4954C44.1189 37.9999 45.5917 35.9151 46.3349 33.5361C47.078 31.1571 47.0538 28.6046 46.2656 26.2402C45.4775 23.8757 43.9653 21.8192 41.9434 20.3619C39.9215 18.9046 37.4924 18.1204 35 18.1204C32.5077 18.1204 30.0785 18.9046 28.0566 20.3619C26.0347 21.8192 24.5225 23.8757 23.7344 26.2402C22.9462 28.6046 22.922 31.1571 23.6652 33.5361C24.4083 35.9151 25.8811 37.9999 27.875 39.4954C23.8655 41.1231 20.5204 44.0527 18.3781 47.8125C18.2454 48.026 18.1569 48.2639 18.118 48.5123C18.079 48.7606 18.0904 49.0142 18.1514 49.258C18.2125 49.5019 18.3219 49.7309 18.4732 49.9316C18.6246 50.1323 18.8147 50.3005 19.0323 50.4263C19.25 50.552 19.4907 50.6327 19.7401 50.6636C19.9896 50.6944 20.2427 50.6748 20.4844 50.6059C20.7261 50.537 20.9515 50.4202 21.1472 50.2624C21.3429 50.1047 21.5048 49.9092 21.6234 49.6875C24.4547 44.7938 29.4547 41.875 35 41.875C40.5453 41.875 45.5453 44.7954 48.3766 49.6875C48.6336 50.1009 49.0413 50.398 49.5135 50.5162C49.9857 50.6344 50.4853 50.5644 50.9068 50.3209C51.3282 50.0774 51.6385 49.6795 51.7719 49.2114C51.9054 48.7433 51.8516 48.2417 51.6219 47.8125ZM26.875 30C26.875 28.3931 27.3515 26.8222 28.2443 25.486C29.1371 24.1499 30.4061 23.1085 31.8907 22.4935C33.3754 21.8786 35.009 21.7177 36.5851 22.0312C38.1612 22.3447 39.609 23.1185 40.7453 24.2548C41.8816 25.3911 42.6554 26.8388 42.9689 28.4149C43.2824 29.991 43.1215 31.6247 42.5065 33.1094C41.8916 34.594 40.8502 35.863 39.514 36.7557C38.1779 37.6485 36.607 38.125 35 38.125C32.8459 38.1226 30.7807 37.2657 29.2575 35.7426C27.7343 34.2194 26.8775 32.1542 26.875 30Z" fill="#0392CC"/>
</svg>
