<svg width="38" height="38" viewBox="0 0 38 38" fill="none" xmlns="http://www.w3.org/2000/svg">
<path d="M27.8439 21.4997L23.0939 19.1247C22.9069 19.0315 22.6986 18.9893 22.4901 19.0023C22.2816 19.0154 22.0803 19.0832 21.9064 19.1989L19.7258 20.6536C18.7248 20.1033 17.9011 19.2796 17.3508 18.2786L18.8055 16.098C18.9212 15.9241 18.989 15.7228 19.0021 15.5143C19.0151 15.3058 18.9729 15.0975 18.8797 14.9105L16.5047 10.1605C16.4063 9.96175 16.2541 9.79449 16.0655 9.67775C15.8769 9.561 15.6593 9.49942 15.4375 9.5C13.8627 9.5 12.3525 10.1256 11.239 11.2391C10.1255 12.3526 9.49995 13.8628 9.49995 15.4375C9.50388 18.9007 10.8814 22.2209 13.3302 24.6697C15.7791 27.1186 19.0993 28.4961 22.5625 28.5C23.3422 28.5 24.1143 28.3464 24.8346 28.048C25.555 27.7496 26.2096 27.3123 26.7609 26.7609C27.3122 26.2096 27.7496 25.5551 28.048 24.8347C28.3464 24.1143 28.5 23.3422 28.5 22.5625C28.5001 22.3419 28.4388 22.1256 28.3229 21.9379C28.207 21.7501 28.0411 21.5984 27.8439 21.4997ZM22.5625 26.125C19.7289 26.1219 17.0123 24.9948 15.0087 22.9912C13.0051 20.9876 11.8781 18.271 11.875 15.4375C11.8747 14.6138 12.1599 13.8156 12.682 13.1785C13.204 12.5414 13.9307 12.1049 14.7383 11.9433L16.4424 15.3573L14.9921 17.5156C14.8838 17.6782 14.8172 17.865 14.7983 18.0594C14.7794 18.2539 14.8087 18.45 14.8838 18.6304C15.7334 20.6497 17.3399 22.2561 19.3592 23.1058C19.5401 23.1841 19.7377 23.2162 19.9341 23.1991C20.1306 23.182 20.3197 23.1163 20.4843 23.0078L22.653 21.562L26.0671 23.2661C25.9042 24.0747 25.4658 24.8017 24.8266 25.323C24.1875 25.8444 23.3873 26.1278 22.5625 26.125ZM19 3.5625C16.3347 3.56192 13.7147 4.25138 11.395 5.56378C9.07525 6.87617 7.13482 8.7668 5.76255 11.0516C4.39028 13.3364 3.63293 15.9376 3.56421 18.602C3.4955 21.2663 4.11776 23.9031 5.37042 26.2556L3.68565 31.3099C3.5461 31.7284 3.52585 32.1775 3.62717 32.6068C3.72849 33.0361 3.94737 33.4287 4.25929 33.7407C4.57121 34.0526 4.96384 34.2715 5.39317 34.3728C5.8225 34.4741 6.27156 34.4538 6.69003 34.3143L11.7443 32.6295C13.8147 33.7307 16.1087 34.3458 18.4523 34.428C20.7958 34.5102 23.1273 34.0575 25.2698 33.1041C27.4122 32.1508 29.3093 30.7219 30.8171 28.9258C32.3248 27.1298 33.4036 25.0139 33.9715 22.7387C34.5395 20.4636 34.5816 18.0889 34.0948 15.795C33.6079 13.5011 32.6049 11.3482 31.1618 9.49988C29.7187 7.6515 27.8735 6.15618 25.7662 5.12741C23.6589 4.09864 21.3449 3.56346 19 3.5625ZM19 32.0625C16.7036 32.0641 14.4475 31.4593 12.4598 30.3095C12.3143 30.2251 12.1525 30.1725 11.9851 30.1554C11.8177 30.1383 11.6486 30.1569 11.489 30.21L5.93745 32.0625L7.78847 26.5109C7.84182 26.3514 7.86068 26.1824 7.84379 26.015C7.8269 25.8477 7.77465 25.6858 7.6905 25.5402C6.25061 23.0507 5.6725 20.1557 6.04585 17.3042C6.4192 14.4527 7.72315 11.8041 9.75539 9.76925C11.7876 7.73444 14.4346 6.42715 17.2856 6.0502C20.1367 5.67325 23.0324 6.2477 25.5237 7.68444C28.0149 9.12118 29.9624 11.3399 31.064 13.9964C32.1656 16.6529 32.3597 19.5987 31.6163 22.3768C30.8729 25.1549 29.2334 27.61 26.9523 29.3613C24.6711 31.1125 21.8758 32.062 19 32.0625Z" fill="white"/>
</svg>
